# xmcd CD database file
#
# Track frame offsets:
#	150
#	17402
#	33515
#	53455
#	73685
#	97848
#	117782
#	136171
#	155172
#	170753
#	188179
#	207525
#	225650
#	245041
#	260929
#	281032
#	299666
#
# Disc length: 4192 seconds
#
# Revision: 7
# Processed by: cddbd v1.5.2PL0 Copyright (c) Steve Scherf et al.
# Submitted via: CDex 1.77
#
DISCID=03105e11
DTITLE=Chiara Civello - Canzoni
DYEAR=2014
DGENRE=Jazz
TTITLE0=Via Con Me
TTITLE1=Io Che Non Vivo Senza Te
TTITLE2=Con Una Rosa
TTITLE3=Che Me Importa El Mundo
TTITLE4=Va Bene Va Bene Cosi'
TTITLE5=Io Che Amo Solo Te
TTITLE6=Never Never Never
TTITLE7=Metti Una Sera A Cena
TTITLE8=Una Sigaretta
TTITLE9=Fortissimo
TTITLE10=Incantevole
TTITLE11=E Penso A Te
TTITLE12=Il Mondo
TTITLE13=Senza Fine
TTITLE14=I Mulini Dei Ricordi
TTITLE15=Mentre Tutto Scorre
TTITLE16=Arrivederci
EXTD=YEAR: 2014
EXTT0=
EXTT1=
EXTT2=
EXTT3=
EXTT4=
EXTT5=
EXTT6=
EXTT7=
EXTT8=
EXTT9=
EXTT10=
EXTT11=
EXTT12=
EXTT13=
EXTT14=
EXTT15=
EXTT16=
PLAYORDER=
